<svg width="218" height="167" viewBox="0 0 218 167" fill="none" xmlns="http://www.w3.org/2000/svg">
<g filter="url(#filter0_d_183_369)">
<path d="M120.734 108.348C64.0103 132.473 15.6142 140.797 10.5554 127.3C7.52245 119.207 20.5606 105.291 46.3268 89.12C46.4182 89.0616 46.5194 89.0221 46.6246 89.0039C46.7298 88.9858 46.8369 88.9892 46.9398 89.014C47.0427 89.0389 47.1395 89.0847 47.2244 89.1488C47.3094 89.2128 47.3809 89.294 47.435 89.3876C47.4891 89.4812 47.5247 89.5854 47.5396 89.6942C47.5546 89.803 47.5488 89.9144 47.5223 90.0219C47.4959 90.1294 47.4495 90.2309 47.3857 90.3208C47.3219 90.4106 47.242 90.4869 47.1506 90.5453L47.1479 90.547L47.1389 90.5526C22.8673 105.786 9.42788 119.621 12.0652 126.657C16.6399 138.863 66.1374 129.768 120.152 106.796C174.166 83.8233 215.934 54.1042 211.36 41.8983C208.711 34.832 189.914 34.6879 162.302 41.523C162.199 41.5493 162.091 41.5542 161.987 41.5374C161.882 41.5207 161.782 41.4826 161.693 41.4254C161.603 41.3682 161.526 41.293 161.465 41.204C161.404 41.115 161.361 41.0141 161.339 40.9069C161.316 40.7997 161.314 40.6884 161.332 40.5793C161.351 40.4703 161.39 40.3656 161.447 40.2712C161.505 40.1768 161.579 40.0947 161.666 40.0294C161.753 39.9641 161.852 39.917 161.955 39.8907L161.958 39.8901L161.963 39.8887C191.27 32.634 209.825 33.1324 212.869 41.2561C217.928 54.7538 177.457 84.2241 120.734 108.348Z" fill="white"/>
<path d="M85.5661 102.158C37.5877 65.794 7.1441 28.5684 16.2586 17.41C21.7231 10.7202 39.9156 14.8443 66.1709 28.7256C66.265 28.7743 66.3475 28.841 66.4137 28.9219C66.48 29.0027 66.5286 29.0962 66.557 29.1968C66.5853 29.2975 66.5927 29.4035 66.5788 29.5086C66.5649 29.6138 66.5299 29.7161 66.4758 29.8098C66.4218 29.9034 66.3498 29.9866 66.2638 30.0544C66.1779 30.1223 66.0798 30.1736 65.975 30.2053C65.8703 30.2371 65.761 30.2487 65.6534 30.2395C65.5458 30.2303 65.442 30.2006 65.3479 30.1518L65.3452 30.1504L65.3361 30.1456C40.6034 17.0697 22.2874 12.5606 17.5357 18.3779C9.29344 28.4685 40.9277 66.2469 86.6147 100.874C132.302 135.501 177.862 156.23 186.105 146.139C190.876 140.298 181.942 124.131 162.788 103.948C162.716 103.872 162.659 103.783 162.623 103.685C162.587 103.586 162.571 103.482 162.577 103.376C162.583 103.27 162.61 103.166 162.657 103.069C162.704 102.971 162.769 102.883 162.85 102.809C162.931 102.736 163.025 102.678 163.128 102.638C163.23 102.599 163.339 102.58 163.447 102.581C163.556 102.582 163.662 102.605 163.76 102.647C163.858 102.688 163.946 102.749 164.018 102.825L164.02 102.827L164.024 102.831C184.354 124.253 192.867 140.391 187.382 147.107C178.267 158.266 133.544 138.521 85.5661 102.158Z" fill="white"/>
<path d="M111.319 156C154.75 156 189.957 121.078 189.957 78C189.957 34.9218 154.75 0 111.319 0C67.8884 0 32.6809 34.9218 32.6809 78C32.6809 121.078 67.8884 156 111.319 156Z" fill="#F2F2F2"/>
<path d="M182.986 78.9758C182.987 88.2984 181.136 97.5298 177.539 106.143C173.943 114.756 168.671 122.582 162.025 129.174C155.379 135.766 147.489 140.995 138.806 144.562C130.122 148.13 120.815 149.965 111.416 149.965C103.039 149.96 94.7267 148.507 86.8527 145.67C74.5411 141.221 63.696 133.508 55.498 123.369C47.3 113.23 42.0634 101.055 40.3584 88.1683C38.6533 75.2821 40.5451 62.1788 45.8279 50.285C51.1106 38.3913 59.5818 28.1631 70.319 20.7138C81.0563 13.2646 93.6482 8.87995 106.724 8.03721C119.799 7.19447 132.857 9.92596 144.476 15.9343C156.095 21.9426 165.83 30.9975 172.62 42.1131C179.41 53.2287 182.995 65.979 182.986 78.9758Z" fill="white"/>
<path d="M87.4626 86.7641C99.6622 86.7641 109.552 76.9546 109.552 64.854C109.552 52.7533 99.6622 42.9438 87.4626 42.9438C75.2629 42.9438 65.3731 52.7533 65.3731 64.854C65.3731 76.9546 75.2629 86.7641 87.4626 86.7641Z" fill="#E4E4E4"/>
<path d="M180.194 59.283C175.406 61.5675 169.949 62.0642 164.823 60.6821C159.696 59.2999 155.243 56.1315 152.28 51.7575C149.318 47.3835 148.043 42.0969 148.691 36.8667C149.339 31.6365 151.865 26.813 155.807 23.2803C167.521 32.4659 176.048 45.0538 180.194 59.283Z" fill="#F2F2F2"/>
<path d="M135.273 110.526C139.665 110.526 143.225 106.995 143.225 102.639C143.225 98.2824 139.665 94.751 135.273 94.751C130.881 94.751 127.321 98.2824 127.321 102.639C127.321 106.995 130.881 110.526 135.273 110.526Z" fill="#E4E4E4"/>
<path d="M102.58 147.335C102.58 148.028 102.488 148.717 102.307 149.386C97.0301 148.732 91.8457 147.485 86.8528 145.67C87.2674 143.767 88.377 142.083 89.9681 140.943C91.5591 139.802 93.5191 139.286 95.471 139.492C97.4229 139.699 99.2289 140.614 100.541 142.062C101.854 143.51 102.58 145.388 102.58 147.335Z" fill="#F2F2F2"/>
<path d="M55.7509 75.4702C55.7505 79.4719 54.217 83.324 51.461 86.2464C48.7049 89.1688 44.9323 90.9433 40.9068 91.2105C39.0848 80.7927 39.616 70.1037 42.4619 59.9141C46.1746 60.528 49.5474 62.4281 51.9807 65.2765C54.4139 68.1249 55.7498 71.7369 55.7509 75.4702Z" fill="#F2F2F2"/>
<path d="M135.03 76.4121C135.03 76.4121 133.722 80.0186 131.681 85.2003C131.021 86.8835 130.282 88.7313 129.485 90.6761C128.375 93.3843 127.152 96.2814 125.871 99.1784C125.083 100.961 124.274 102.742 123.456 104.482C119.057 113.807 114.373 121.885 111.303 121.999C104.407 122.252 89.636 81.3376 88.0237 76.8167C87.9294 76.5524 87.8808 76.4121 87.8808 76.4121H135.03Z" fill="#DDBEA9"/>
<path opacity="0.1" d="M131.681 85.2003C131.021 86.8835 130.282 88.7313 129.485 90.6761L111.218 76.4121H120.426L131.681 85.2003Z" fill="black"/>
<path opacity="0.1" d="M125.871 99.1784C125.083 100.961 124.274 102.742 123.456 104.482L88.0237 76.8167C87.9294 76.5524 87.8808 76.4121 87.8808 76.4121H96.7145L125.871 99.1784Z" fill="black"/>
<path d="M112.273 40.1752C110.112 41.6935 106.694 41.1194 104.617 42.7274C103.196 43.8273 102.817 45.7082 103.204 47.345C103.592 48.9818 104.622 50.4342 105.659 51.8316C106.374 52.7959 107.116 53.7679 108.121 54.5014C109.527 55.5269 111.33 56.0042 113.098 56.3877C116.948 57.2224 120.879 57.7277 124.838 57.8967C126.603 57.972 128.603 57.8967 129.792 56.7375C130.485 56.0625 130.763 55.1374 130.966 54.2427C131.284 52.8431 131.46 51.3363 130.804 50.0327C130.265 48.9612 129.227 48.158 128.176 47.4449C124.88 45.2083 120.998 43.3565 118.986 40.1373C118.186 38.8576 117.693 37.3748 116.481 36.382C114.901 35.0879 111.386 34.5588 109.526 35.4232C109.813 36.0042 113.569 39.2651 112.273 40.1752Z" fill="#DEAAFF"/>
<path d="M94.1098 55.265C93.469 57.2356 92.8786 59.3207 93.4182 61.315C94.1297 63.9445 96.7296 65.9137 99.5816 66.8709C102.434 67.8281 105.544 67.9399 108.591 68.0408L124.546 68.5692C126.551 68.6357 128.595 68.7085 130.479 69.3197C132.032 69.8235 133.878 70.653 135.173 69.7407C135.76 69.327 136.024 68.657 136.233 68.0181C136.911 65.939 137.29 63.6559 136.378 61.6484C135.333 59.3478 132.756 57.8362 130.081 57.1136C127.405 56.3911 124.572 56.3207 121.792 56.0478C118.972 55.7709 116.184 55.2815 113.457 54.5849C111.178 54.0024 108.869 53.2338 107.183 51.7542C106.271 50.9539 105.581 49.9778 104.721 49.1331C99.7973 44.2944 95.3209 51.5411 94.1098 55.265Z" fill="#DEAAFF"/>
<path d="M90.6039 64.3188C89.052 64.9352 87.706 65.8965 86.6961 67.1096C85.6862 68.3227 85.0467 69.7465 84.8395 71.2431C84.6324 72.7397 84.8645 74.2584 85.5135 75.6521C86.1625 77.0458 87.2064 78.2672 88.5441 79.1981C90.9735 80.8888 94.1527 81.4768 97.2329 81.6736C100.241 81.8658 103.261 81.7336 106.273 81.6013L132.922 80.4309C134.484 80.3622 136.252 80.2028 137.205 79.1035C137.917 78.2831 137.959 77.1515 137.789 76.1275C137.178 72.4438 134.041 69.1826 130.035 68.0662C128.525 67.6452 126.934 67.5119 125.357 67.3811L113.934 66.4333C112.396 66.3057 110.848 66.1766 109.357 65.8172C104.84 64.7283 100.803 61.5491 96.152 62.0199C92.9966 62.3392 90.3986 64.2981 88.1065 66.2474" fill="#DEAAFF"/>
<path opacity="0.1" d="M105.524 48.3589C105.524 48.3589 109.252 54.3282 128.377 56.7384Z" fill="black"/>
<path opacity="0.1" d="M94.9449 63.9937C94.9449 63.9937 101.873 70.2082 130.467 70.2082Z" fill="black"/>
<path d="M110.999 45.392C112.007 45.392 112.824 45.1504 112.824 44.8525C112.824 44.5545 112.007 44.313 110.999 44.313C109.991 44.313 109.174 44.5545 109.174 44.8525C109.174 45.1504 109.991 45.392 110.999 45.392Z" fill="#7D1AAB"/>
<path d="M117.083 48.8983C118.091 48.8983 118.908 48.6568 118.908 48.3588C118.908 48.0609 118.091 47.8193 117.083 47.8193C116.075 47.8193 115.258 48.0609 115.258 48.3588C115.258 48.6568 116.075 48.8983 117.083 48.8983Z" fill="#7D1AAB"/>
<path d="M124.079 52.6747C125.087 52.6747 125.905 52.4331 125.905 52.1352C125.905 51.8372 125.087 51.5957 124.079 51.5957C123.071 51.5957 122.254 51.8372 122.254 52.1352C122.254 52.4331 123.071 52.6747 124.079 52.6747Z" fill="#7D1AAB"/>
<path d="M99.7441 54.2933C100.752 54.2933 101.569 54.0518 101.569 53.7538C101.569 53.4559 100.752 53.2144 99.7441 53.2144C98.7361 53.2144 97.919 53.4559 97.919 53.7538C97.919 54.0518 98.7361 54.2933 99.7441 54.2933Z" fill="#7D1AAB"/>
<path d="M115.258 59.4183C116.266 59.4183 117.083 59.1768 117.083 58.8788C117.083 58.5809 116.266 58.3394 115.258 58.3394C114.25 58.3394 113.433 58.5809 113.433 58.8788C113.433 59.1768 114.25 59.4183 115.258 59.4183Z" fill="#7D1AAB"/>
<path d="M93.3561 69.9383C94.3641 69.9383 95.1812 69.6968 95.1812 69.3989C95.1812 69.1009 94.3641 68.8594 93.3561 68.8594C92.3481 68.8594 91.531 69.1009 91.531 69.3989C91.531 69.6968 92.3481 69.9383 93.3561 69.9383Z" fill="#7D1AAB"/>
<path d="M104.915 59.9579C105.923 59.9579 106.741 59.7163 106.741 59.4184C106.741 59.1204 105.923 58.8789 104.915 58.8789C103.907 58.8789 103.09 59.1204 103.09 59.4184C103.09 59.7163 103.907 59.9579 104.915 59.9579Z" fill="#7D1AAB"/>
<path d="M97.919 73.9847C98.927 73.9847 99.7442 73.7432 99.7442 73.4452C99.7442 73.1473 98.927 72.9058 97.919 72.9058C96.911 72.9058 96.0939 73.1473 96.0939 73.4452C96.0939 73.7432 96.911 73.9847 97.919 73.9847Z" fill="#7D1AAB"/>
<path d="M109.782 71.557C110.79 71.557 111.608 71.3155 111.608 71.0175C111.608 70.7196 110.79 70.478 109.782 70.478C108.774 70.478 107.957 70.7196 107.957 71.0175C107.957 71.3155 108.774 71.557 109.782 71.557Z" fill="#7D1AAB"/>
<path d="M116.931 84.5047C118.023 84.5047 118.908 82.8744 118.908 80.8632C118.908 78.852 118.023 77.2217 116.931 77.2217C115.839 77.2217 114.954 78.852 114.954 80.8632C114.954 82.8744 115.839 84.5047 116.931 84.5047Z" fill="#DEAAFF"/>
<path d="M119.365 85.8534C120.456 85.8534 121.342 84.223 121.342 82.2118C121.342 80.2007 120.456 78.5703 119.365 78.5703C118.273 78.5703 117.387 80.2007 117.387 82.2118C117.387 84.223 118.273 85.8534 119.365 85.8534Z" fill="#DEAAFF"/>
</g>
<defs>
<filter id="filter0_d_183_369" x="6.12323" y="0" width="211.173" height="164" filterUnits="userSpaceOnUse" color-interpolation-filters="sRGB">
<feFlood flood-opacity="0" result="BackgroundImageFix"/>
<feColorMatrix in="SourceAlpha" type="matrix" values="0 0 0 0 0 0 0 0 0 0 0 0 0 0 0 0 0 0 127 0" result="hardAlpha"/>
<feOffset dy="4"/>
<feGaussianBlur stdDeviation="2"/>
<feComposite in2="hardAlpha" operator="out"/>
<feColorMatrix type="matrix" values="0 0 0 0 0 0 0 0 0 0 0 0 0 0 0 0 0 0 0.25 0"/>
<feBlend mode="normal" in2="BackgroundImageFix" result="effect1_dropShadow_183_369"/>
<feBlend mode="normal" in="SourceGraphic" in2="effect1_dropShadow_183_369" result="shape"/>
</filter>
</defs>
</svg>